# xmcd CD database file
#
# Track frame offsets:
#	150
#	9452
#	20562
#	30982
#	42184
#	52574
#	64482
#	73850
#	85945
#	96197
#	107004
#	116056
#
# Disc length: 1739 seconds
#
# Revision: 3
# Processed by: cddbd v1.4PL0 Copyright (c) Steve Scherf et al.
# Submitted via: CDex 1.40Beta8
#
DISCID=9506c90c
DTITLE=Patsy Cline and George Jones - Walk Through This World With Me
DYEAR=1997
DGENRE=Country
TTITLE0=Walkin' After Midnight
TTITLE1=I Cried All The Way to the Altar
TTITLE2=I Love You Honey
TTITLE3=Just Out of Reach
TTITLE4=Walking Dream
TTITLE5=Today, Tomorrow and Forever
TTITLE6=The Race Is On
TTITLE7=White Lightnin'
TTITLE8=Walk Through This World With Me
TTITLE9=Tender Years
TTITLE10=Love Bug
TTITLE11=A Good Year For The Roses
EXTD=YEAR: 1997 ID3G: 2
EXTT0=
EXTT1=
EXTT2=
EXTT3=
EXTT4=
EXTT5=
EXTT6=
EXTT7=
EXTT8=
EXTT9=
EXTT10=
EXTT11=
PLAYORDER=
